<svg width="104" height="32" viewBox="0 0 104 32" fill="none" xmlns="http://www.w3.org/2000/svg">
<g clip-path="url(#clip0_1880_979)">
<path fill-rule="evenodd" clip-rule="evenodd" d="M15.11 0C12.27 0 9.62 0.787539 7.35 2.1433C6.7 1.61495 5.89 1.32586 5.04 1.32586C3.02 1.32586 1.37 2.97072 1.37 4.98442C1.37 5.82181 1.66 6.62928 2.18 7.26729C0.8 9.55016 0 12.2118 0 15.0629C0 15.1826 0.02 15.2922 0.06 15.4019C0.1 15.5115 0.17 15.6112 0.25 15.691C0.33 15.7707 0.43 15.8405 0.54 15.8804C0.65 15.9202 0.76 15.9502 0.88 15.9502C1 15.9502 1.11 15.9302 1.22 15.8804C1.33 15.8405 1.42 15.7707 1.51 15.691C1.59 15.6112 1.66 15.5115 1.7 15.4019C1.74 15.2922 1.77 15.1826 1.76 15.0629C1.76 12.6006 2.43 10.3078 3.6 8.32399C4.06 8.52337 4.55 8.63302 5.05 8.64299C7.07 8.64299 8.72 6.99813 8.72 4.98442C8.72 4.48598 8.61 3.99751 8.41 3.54891C10.38 2.40249 12.67 1.74455 15.12 1.74455C15.24 1.74455 15.35 1.72461 15.46 1.68474C15.57 1.64486 15.67 1.57508 15.75 1.49533C15.83 1.41558 15.9 1.31589 15.94 1.20623C15.98 1.09657 16.01 0.986916 16.01 0.86729C16.01 0.747664 15.99 0.638006 15.94 0.528349C15.9 0.418692 15.83 0.328972 15.75 0.239252C15.67 0.159502 15.57 0.0897196 15.46 0.0498442C15.34 0.0199377 15.23 0 15.11 0ZM5.04 3.08037C5.63 3.08037 6.16 3.3296 6.52 3.78816L6.54 3.8081C6.81 4.14704 6.95 4.56573 6.95 4.99439C6.95 6.06106 6.1 6.89844 5.04 6.89844C4.6 6.89844 4.18 6.74891 3.84 6.46978C3.39 6.1109 3.13 5.56262 3.13 4.98442C3.13 3.91776 3.98 3.08037 5.04 3.08037ZM23.8 12.152L25.81 10.1483C25.97 9.98877 26.04 9.76946 26.04 9.55014C26.04 9.08161 25.65 8.71276 25.18 8.7327C24.98 8.74267 24.78 8.82242 24.63 8.96198L22.62 10.9657L20.63 8.98192L20.6304 8.98155L20.6311 8.98085C20.8438 8.76879 21.9611 7.65495 22.61 6.99812C22.77 6.83862 22.84 6.6193 22.84 6.39999C22.84 5.93145 22.45 5.5626 21.98 5.58254C21.78 5.59251 21.58 5.67226 21.43 5.81183L19.44 7.79563L17.62 5.9813C17.22 5.58254 16.58 5.58254 16.18 5.9813L13.7 8.46354L11.7 6.46977C11.54 6.31027 11.32 6.24049 11.1 6.24049C10.63 6.24049 10.26 6.62927 10.28 7.09781C10.29 7.30715 10.37 7.49656 10.51 7.64609L12.52 9.64983L9.91999 12.2417L9.91987 12.2416L9.91916 12.2409C9.785 12.1072 8.59854 10.9244 7.90999 10.248C7.74999 10.0885 7.52999 10.0187 7.30999 10.0187C7.06999 10.0187 6.85999 10.1184 6.70999 10.2679C6.55999 10.4174 6.46999 10.6367 6.47999 10.876C6.48999 11.0754 6.56999 11.2748 6.70999 11.4243C7.22995 11.9507 8.14594 12.8588 8.54097 13.2504L8.71999 13.428L6.23999 15.9003C5.83999 16.2991 5.83999 16.9371 6.23999 17.3358L8.06999 19.1402L6.05999 21.1439C5.89999 21.3034 5.82999 21.5227 5.82999 21.742C5.82999 22.2106 6.21999 22.5794 6.68999 22.5595C6.88999 22.5495 7.08999 22.4698 7.23999 22.3302C7.8988 21.6834 9.15545 20.4307 9.25944 20.327L9.25999 20.3265L11.25 22.3103L9.23999 24.314C9.07999 24.4735 9.00999 24.6928 9.00999 24.9121C9.00999 25.3807 9.39999 25.7495 9.86999 25.7296C10.07 25.7196 10.27 25.6399 10.42 25.5003C11.08 24.8523 12.33 23.5963 12.43 23.4866L14.29 25.3408C14.69 25.7396 15.33 25.7396 15.73 25.3408L18.21 22.8685L20.23 24.8822C20.39 25.0417 20.61 25.1115 20.83 25.1115C21.3 25.1115 21.67 24.7227 21.65 24.2542C21.64 24.0548 21.56 23.8554 21.42 23.7059C20.74 23.0181 19.4 21.6922 19.4 21.6922L22.01 19.0903C22.06 19.1402 23.32 20.3962 24.03 21.0941C24.19 21.2536 24.41 21.3234 24.63 21.3234C25.1 21.3234 25.47 20.9346 25.45 20.466C25.44 20.2667 25.36 20.0673 25.22 19.9177C24.6195 19.3102 23.4969 18.1982 23.2488 17.9524L23.2486 17.9522L23.2 17.904L25.68 15.4318C26.08 15.033 26.08 14.395 25.68 13.9963L23.8 12.152ZM19.75 12.2417C19.56 12.6106 19.14 12.79 18.76 12.6804L19.37 15.0729C19.48 15.5015 19.21 15.9701 18.77 16.0997L14.3 17.4554L15.13 20.6355C15.25 21.0741 14.98 21.5327 14.53 21.6723C14.08 21.8118 13.63 21.5626 13.52 21.124L12.5 17.1564C12.39 16.7177 12.66 16.2592 13.1 16.1296L17.57 14.7738L17.16 13.1688C16.88 13.4779 16.44 13.5477 16.1 13.3483C15.76 13.1489 15.64 12.7202 15.8 12.3514L16.61 10.4075C16.65 10.3078 16.72 10.2081 16.8 10.1283C16.97 9.95887 17.2 9.85918 17.43 9.86915C17.6 9.86915 17.76 9.91899 17.89 10.0187L19.54 11.2249C19.85 11.4343 19.94 11.8729 19.75 12.2417ZM24.65 29.757C22.38 31.1128 19.73 31.9003 16.89 31.9003C16.77 31.9003 16.66 31.8804 16.55 31.8505C16.44 31.8106 16.34 31.7408 16.26 31.6611C16.18 31.5714 16.11 31.4816 16.07 31.372C16.02 31.2623 16 31.1527 16 31.033C16 30.9134 16.03 30.8038 16.07 30.6941C16.11 30.5844 16.18 30.4848 16.26 30.405C16.34 30.3253 16.44 30.2555 16.55 30.2156C16.66 30.1757 16.77 30.1558 16.89 30.1558C19.34 30.1558 21.63 29.4978 23.6 28.3514C23.4 27.9028 23.29 27.4143 23.29 26.9159C23.29 24.9022 24.94 23.2573 26.96 23.2573C27.46 23.2673 27.95 23.377 28.41 23.5763C29.58 21.5925 30.25 19.2997 30.25 16.8374C30.25 16.7178 30.27 16.6081 30.31 16.4985C30.35 16.3888 30.42 16.2891 30.5 16.2094C30.59 16.1296 30.68 16.0598 30.79 16.02C30.9 15.9701 31.01 15.9502 31.13 15.9502C31.25 15.9502 31.36 15.9801 31.47 16.02C31.58 16.0598 31.68 16.1296 31.76 16.2094C31.84 16.2891 31.91 16.3888 31.95 16.4985C31.99 16.6081 32.01 16.7178 32.01 16.8374C32.01 19.6885 31.2 22.3601 29.82 24.633C30.34 25.271 30.63 26.0785 30.63 26.9159C30.63 28.9296 28.98 30.5745 26.96 30.5745C26.11 30.5745 25.3 30.2854 24.65 29.757ZM25.48 28.1122C25.84 28.5707 26.37 28.82 26.96 28.82C28.02 28.82 28.87 27.9826 28.87 26.9159C28.87 26.3377 28.61 25.7894 28.16 25.4305C27.82 25.1514 27.4 25.0019 26.96 25.0019C25.9 25.0019 25.05 25.8393 25.05 26.9059C25.05 27.3346 25.19 27.7533 25.46 28.0922L25.48 28.1122Z" fill="white"/>
</g>
<path d="M49.9205 11.0678H45.1163V25H41.1557V11.0678H36.3515V7.92752H49.9205V11.0678ZM57.2263 22.012C57.7496 22.012 58.1754 21.9456 58.5035 21.8128C58.8394 21.68 59.1011 21.5082 59.2885 21.2973C59.476 21.0863 59.6049 20.8481 59.6752 20.5825C59.7455 20.3169 59.7807 20.0474 59.7807 19.774C59.7807 19.4615 59.7377 19.1803 59.6518 18.9303C59.5737 18.6803 59.4331 18.4694 59.23 18.2976C59.0347 18.1257 58.773 17.9929 58.4449 17.8992C58.1168 17.8054 57.7028 17.7586 57.2028 17.7586H54.4375V22.012H57.2263ZM54.4375 10.8921V15.1104H56.4998C56.9372 15.1104 57.3317 15.0791 57.6832 15.0166C58.0348 14.9541 58.3316 14.8448 58.5738 14.6886C58.8237 14.5323 59.0112 14.3175 59.1362 14.0441C59.269 13.7707 59.3354 13.427 59.3354 13.0129C59.3354 12.6067 59.2846 12.2708 59.1831 12.0052C59.0815 11.7318 58.9253 11.5131 58.7144 11.349C58.5035 11.185 58.234 11.0678 57.9059 10.9975C57.5856 10.9272 57.2028 10.8921 56.7576 10.8921H54.4375ZM56.7576 7.92752C57.9371 7.92752 58.9409 8.03689 59.769 8.25561C60.597 8.47434 61.2727 8.7829 61.7961 9.1813C62.3195 9.5797 62.6984 10.064 62.9327 10.6343C63.1749 11.2045 63.2959 11.8412 63.2959 12.5442C63.2959 12.927 63.2413 13.2981 63.1319 13.6574C63.0225 14.0089 62.8507 14.3409 62.6163 14.6534C62.382 14.9581 62.0812 15.2393 61.7141 15.4971C61.3469 15.7548 60.9056 15.9775 60.39 16.165C61.5149 16.4384 62.3468 16.8797 62.8858 17.489C63.4248 18.0984 63.6943 18.8873 63.6943 19.856C63.6943 20.5825 63.5537 21.2582 63.2725 21.8831C62.9913 22.5081 62.5773 23.0549 62.0305 23.5236C61.4914 23.9845 60.8235 24.3477 60.0268 24.6133C59.23 24.8711 58.3199 25 57.2966 25H50.4769V7.92752H56.7576ZM83.914 7.92752V25H80.4222V15.1807C80.4222 14.9541 80.4261 14.7081 80.4339 14.4425C80.4495 14.1769 80.4729 13.9074 80.5042 13.634L75.9695 22.4104C75.8289 22.6838 75.6375 22.8908 75.3953 23.0315C75.161 23.1721 74.8915 23.2424 74.5868 23.2424H74.0478C73.7432 23.2424 73.4697 23.1721 73.2276 23.0315C72.9932 22.8908 72.8057 22.6838 72.6651 22.4104L68.1304 13.6105C68.1539 13.8918 68.1734 14.1691 68.189 14.4425C68.2047 14.7081 68.2125 14.9541 68.2125 15.1807V25H64.7206V7.92752H67.7438C67.9156 7.92752 68.064 7.93143 68.189 7.93924C68.3218 7.94705 68.439 7.97049 68.5406 8.00955C68.6421 8.0486 68.7319 8.1111 68.8101 8.19703C68.896 8.27514 68.978 8.38841 69.0561 8.53684L73.4502 17.1961C73.6064 17.493 73.7549 17.8015 73.8955 18.1218C74.0439 18.4421 74.1845 18.7702 74.3173 19.1061C74.4501 18.7624 74.5868 18.4265 74.7274 18.0984C74.8758 17.7703 75.0321 17.4578 75.1961 17.161L79.5785 8.53684C79.6566 8.38841 79.7347 8.27514 79.8128 8.19703C79.8988 8.1111 79.9925 8.0486 80.0941 8.00955C80.1956 7.97049 80.3089 7.94705 80.4339 7.93924C80.5667 7.93143 80.719 7.92752 80.8909 7.92752H83.914ZM88.8431 16.4579C88.8431 17.3094 88.9525 18.0749 89.1712 18.7545C89.39 19.4263 89.7024 19.9966 90.1086 20.4653C90.5227 20.934 91.0265 21.2933 91.6202 21.5433C92.2217 21.7855 92.9052 21.9066 93.6708 21.9066C94.4285 21.9066 95.1042 21.7855 95.6979 21.5433C96.2916 21.2933 96.7915 20.934 97.1978 20.4653C97.6118 19.9966 97.9282 19.4263 98.1469 18.7545C98.3656 18.0749 98.475 17.3094 98.475 16.4579C98.475 15.6142 98.3656 14.8565 98.1469 14.1847C97.9282 13.5051 97.6118 12.9309 97.1978 12.4622C96.7915 11.9935 96.2916 11.6342 95.6979 11.3842C95.1042 11.1342 94.4285 11.0092 93.6708 11.0092C92.9052 11.0092 92.2217 11.1342 91.6202 11.3842C91.0265 11.6342 90.5227 11.9935 90.1086 12.4622C89.7024 12.9309 89.39 13.5051 89.1712 14.1847C88.9525 14.8565 88.8431 15.6142 88.8431 16.4579ZM103.49 28.1989H100.233C99.7639 28.1989 99.3421 28.1364 98.9671 28.0114C98.6 27.8942 98.2562 27.6716 97.936 27.3435L95.8151 24.9648C95.1511 25.1133 94.4363 25.1875 93.6708 25.1875C92.3428 25.1875 91.132 24.9648 90.0383 24.5196C88.9447 24.0743 88.0073 23.4611 87.2261 22.6799C86.4528 21.8909 85.8513 20.9653 85.4216 19.9029C84.9998 18.8405 84.7889 17.6922 84.7889 16.4579C84.7889 15.2237 84.9998 14.0753 85.4216 13.0129C85.8513 11.9506 86.4528 11.0288 87.2261 10.2476C88.0073 9.46643 88.9447 8.85321 90.0383 8.40794C91.132 7.96268 92.3428 7.74004 93.6708 7.74004C94.9988 7.74004 96.2057 7.96658 97.2915 8.41966C98.3851 8.86493 99.3186 9.47815 100.092 10.2593C100.865 11.0405 101.463 11.9623 101.885 13.0247C102.314 14.0871 102.529 15.2315 102.529 16.4579C102.529 17.1922 102.451 17.8992 102.295 18.5788C102.146 19.2506 101.928 19.8833 101.639 20.477C101.357 21.0707 101.006 21.6214 100.584 22.1292C100.17 22.637 99.6975 23.0861 99.1663 23.4767L103.49 28.1989Z" fill="white"/>
<defs>
<clipPath id="clip0_1880_979">
<rect width="32" height="32" fill="white"/>
</clipPath>
</defs>
</svg>
