<svg width="61" height="62" viewBox="0 0 61 62" fill="none" xmlns="http://www.w3.org/2000/svg">
  <path opacity="0.16" d="M0.444458 31.0001C0.444458 22.9846 3.62857 15.2975 9.29634 9.62972C14.9641 3.96195 22.6512 0.777832 30.6667 0.777832C38.6821 0.777832 46.3693 3.96195 52.037 9.62972C57.7048 15.2975 60.8889 22.9846 60.8889 31.0001C60.8889 39.0155 57.7048 46.7026 52.037 52.3704C46.3693 58.0382 38.6821 61.2223 30.6667 61.2223C22.6512 61.2223 14.9641 58.0382 9.29634 52.3704C3.62857 46.7026 0.444458 39.0155 0.444458 31.0001Z" fill="#1F8B4D"/>
  <path d="M30.6667 23.0988V16.7778H14.6667V45.2223H46.6667V23.0988H30.6667ZM21.0667 42.0618H17.8667V38.9013H21.0667V42.0618ZM21.0667 35.7408H17.8667V32.5803H21.0667V35.7408ZM21.0667 29.4198H17.8667V26.2593H21.0667V29.4198ZM21.0667 23.0988H17.8667V19.9383H21.0667V23.0988ZM27.4667 42.0618H24.2667V38.9013H27.4667V42.0618ZM27.4667 35.7408H24.2667V32.5803H27.4667V35.7408ZM27.4667 29.4198H24.2667V26.2593H27.4667V29.4198ZM27.4667 23.0988H24.2667V19.9383H27.4667V23.0988ZM43.4667 42.0618H30.6667V38.9013H33.8667V35.7408H30.6667V32.5803H33.8667V29.4198H30.6667V26.2593H43.4667V42.0618ZM40.2667 29.4198H37.0667V32.5803H40.2667V29.4198ZM40.2667 35.7408H37.0667V38.9013H40.2667V35.7408Z" fill="#1F8B4D"/>
</svg>
