<svg width="62" height="62" viewBox="0 0 62 62" fill="none" xmlns="http://www.w3.org/2000/svg">
<g clip-path="url(#clip0_4193_25153)">
<path opacity="0.16" d="M0 31C0 22.7783 3.26606 14.8933 9.07969 9.07969C14.8933 3.26606 22.7782 0 31 0C39.2217 0 47.1066 3.26606 52.9203 9.07969C58.734 14.8933 62 22.7783 62 31C62 39.2217 58.734 47.1066 52.9203 52.9203C47.1066 58.734 39.2217 62 31 62C22.7782 62 14.8933 58.734 9.07969 52.9203C3.26606 47.1066 0 39.2217 0 31Z" fill="#1F8B4D"/>
<path d="M25.975 21.73C27.04 20.08 28.9 19 31 19C34.315 19 37 21.685 37 25C37 27.1 35.92 28.96 34.27 30.025L25.975 21.73ZM43 38.755C42.97 37.105 42.055 35.59 40.585 34.825C39.775 34.405 38.89 34.015 37.93 33.685L43 38.755ZM44.785 44.785L17.215 17.215L15.085 19.33L28.42 32.665C25.705 33.01 23.335 33.85 21.415 34.84C19.915 35.605 19 37.15 19 38.83V43H38.755L42.67 46.915L44.785 44.785Z" fill="#1F8B4D"/>
</g>
<defs>
<clipPath id="clip0_4193_25153">
<rect width="62" height="62" fill="white"/>
</clipPath>
</defs>
</svg>
