<svg width="62" height="62" viewBox="0 0 62 62" fill="none" xmlns="http://www.w3.org/2000/svg">
<g clip-path="url(#clip0_4193_25168)">
<path opacity="0.16" d="M0 31C0 22.7783 3.26606 14.8933 9.07969 9.07969C14.8933 3.26606 22.7782 0 31 0C39.2217 0 47.1066 3.26606 52.9203 9.07969C58.734 14.8933 62 22.7783 62 31C62 39.2217 58.734 47.1066 52.9203 52.9203C47.1066 58.734 39.2217 62 31 62C22.7782 62 14.8933 58.734 9.07969 52.9203C3.26606 47.1066 0 39.2217 0 31Z" fill="#1F8B4D"/>
<path d="M41.5 40H26.5C25.7044 40 24.9413 39.6839 24.3787 39.1213C23.8161 38.5587 23.5 37.7956 23.5 37V19C23.5 18.2044 23.8161 17.4413 24.3787 16.8787C24.9413 16.3161 25.7044 16 26.5 16H28V23.5L31 21.25L34 23.5V16H41.5C42.2957 16 43.0587 16.3161 43.6213 16.8787C44.184 17.4413 44.5 18.2044 44.5 19V37C44.5 37.7956 44.184 38.5587 43.6213 39.1213C43.0587 39.6839 42.2957 40 41.5 40ZM38.5 43V46H20.5C19.7044 46 18.9413 45.6839 18.3787 45.1213C17.8161 44.5587 17.5 43.7956 17.5 43V22H20.5V43H38.5Z" fill="#1F8B4D"/>
</g>
<defs>
<clipPath id="clip0_4193_25168">
<rect width="62" height="62" fill="white"/>
</clipPath>
</defs>
</svg>
