<svg width="65" height="64" viewBox="0 0 65 64" fill="none" xmlns="http://www.w3.org/2000/svg">
<path opacity="0.16" d="M2.27783 32.0001C2.27783 23.9846 5.46195 16.2975 11.1297 10.6297C16.7975 4.96195 24.4846 1.77783 32.5001 1.77783C40.5155 1.77783 48.2026 4.96195 53.8704 10.6297C59.5382 16.2975 62.7223 23.9846 62.7223 32.0001C62.7223 40.0155 59.5382 47.7026 53.8704 53.3704C48.2026 59.0382 40.5155 62.2223 32.5001 62.2223C24.4846 62.2223 16.7975 59.0382 11.1297 53.3704C5.46195 47.7026 2.27783 40.0155 2.27783 32.0001Z" fill="#1F8B4D"/>
<path d="M32.5001 17.7778C34.386 17.7778 36.1948 18.527 37.5284 19.8606C38.862 21.1942 39.6112 23.003 39.6112 24.8889C39.6112 26.7749 38.862 28.5837 37.5284 29.9173C36.1948 31.2508 34.386 32.0001 32.5001 32.0001C30.6141 32.0001 28.8053 31.2508 27.4717 29.9173C26.1381 28.5837 25.3889 26.7749 25.3889 24.8889C25.3889 23.003 26.1381 21.1942 27.4717 19.8606C28.8053 18.527 30.6141 17.7778 32.5001 17.7778ZM32.5001 35.5556C40.3578 35.5556 46.7223 38.7378 46.7223 42.6667V46.2223H18.2778V42.6667C18.2778 38.7378 24.6423 35.5556 32.5001 35.5556Z" fill="#1F8B4D"/>
</svg>
