<svg width="65" height="64" viewBox="0 0 65 64" fill="none" xmlns="http://www.w3.org/2000/svg">
<path opacity="0.16" d="M2.27783 32.0001C2.27783 23.9846 5.46195 16.2975 11.1297 10.6297C16.7975 4.96195 24.4846 1.77783 32.5001 1.77783C40.5155 1.77783 48.2026 4.96195 53.8704 10.6297C59.5382 16.2975 62.7223 23.9846 62.7223 32.0001C62.7223 40.0155 59.5382 47.7026 53.8704 53.3704C48.2026 59.0382 40.5155 62.2223 32.5001 62.2223C24.4846 62.2223 16.7975 59.0382 11.1297 53.3704C5.46195 47.7026 2.27783 40.0155 2.27783 32.0001Z" fill="#1F8B4D"/>
<path d="M15.5122 26.5755C15.7178 27.2804 16.0031 27.9601 16.3639 28.5978L15.3359 29.8943C15.0003 30.3181 15.0381 30.9222 15.4157 31.304L17.1862 33.0746C17.568 33.4564 18.1722 33.4899 18.596 33.1543L19.8841 32.1347C20.547 32.5166 21.2518 32.8144 21.9861 33.0242L22.1791 34.6815C22.242 35.2186 22.6952 35.6213 23.2322 35.6213H25.737C26.2741 35.6213 26.7272 35.2185 26.7901 34.6815L26.9747 33.083C27.7635 32.8774 28.5187 32.5711 29.2278 32.1725L30.4739 33.1585C30.8977 33.4941 31.5019 33.4564 31.8837 33.0788L33.6542 31.3082C34.036 30.9264 34.0696 30.3222 33.734 29.8984L32.7648 28.6691C33.1675 27.9726 33.4822 27.23 33.692 26.4538L35.1857 26.2818C35.7227 26.2188 36.1255 25.7657 36.1255 25.2287V22.7238C36.1255 22.1868 35.7227 21.7337 35.1857 21.6707L33.713 21.4987C33.5115 20.7309 33.2095 19.9967 32.8235 19.3086L33.7298 18.1632C34.0655 17.7394 34.0277 17.1352 33.6501 16.7534L31.8837 14.987C31.5019 14.6052 30.8977 14.5717 30.474 14.9073L29.3621 15.7884C28.6405 15.3646 27.8684 15.0416 27.0587 14.8234L26.8909 13.3843C26.8279 12.8472 26.3748 12.4445 25.8378 12.4445H23.3329C22.7959 12.4445 22.3428 12.8472 22.2798 13.3843L22.112 14.8234C21.2813 15.0458 20.4883 15.3814 19.7498 15.822L18.596 14.9073C18.1723 14.5717 17.5681 14.6094 17.1863 14.987L15.4157 16.7576C15.0339 17.1394 15.0003 17.7436 15.336 18.1674L16.301 19.3883C15.915 20.0848 15.6213 20.8274 15.4283 21.5994L13.8843 21.7756C13.3472 21.8386 12.9445 22.2917 12.9445 22.8287V25.3336C12.9445 25.8706 13.3472 26.3237 13.8843 26.3867L15.5122 26.5755ZM24.5874 19.7995C26.8698 19.7995 28.7285 21.6582 28.7285 23.9406C28.7285 26.2231 26.8698 28.0818 24.5874 28.0818C22.305 28.0818 20.4463 26.2231 20.4463 23.9406C20.4463 21.6582 22.305 19.7995 24.5874 19.7995Z" fill="#1F8B4D"/>
<path d="M49.3503 27.1922L48.0286 26.0762C47.6217 25.7321 47.0217 25.7489 46.6357 26.114L45.9057 26.7979C45.2889 26.5 44.6344 26.2902 43.9589 26.1685L43.7534 25.1615C43.6485 24.6413 43.166 24.2804 42.6372 24.3224L40.9128 24.4693C40.3842 24.5154 39.9688 24.9476 39.952 25.4804L39.9185 26.5042C39.2555 26.7433 38.6304 27.0706 38.0598 27.4817L37.1871 26.9027C36.7423 26.609 36.1507 26.693 35.8067 27.0999L34.6907 28.43C34.3466 28.8369 34.3634 29.4369 34.7283 29.8229L35.492 30.6368C35.2276 31.2326 35.0388 31.8578 34.9298 32.4997L33.8389 32.7221C33.3186 32.827 32.9578 33.3095 32.9998 33.8382L33.1466 35.5626C33.1928 36.0913 33.6249 36.5066 34.1578 36.5234L35.3368 36.5611C35.5508 37.1234 35.8319 37.6562 36.1717 38.1555L35.513 39.1499C35.2193 39.5946 35.3032 40.1862 35.7102 40.5302L37.0318 41.6463C37.4388 41.9903 38.0388 41.9735 38.4248 41.6085L39.2891 40.7988C39.8555 41.0631 40.4513 41.2603 41.0639 41.3778L41.303 42.5609C41.4079 43.0812 41.8904 43.442 42.4191 43.4001L44.1435 43.2532C44.6722 43.2071 45.0875 42.775 45.1043 42.2421L45.1421 41.084C45.7714 40.8617 46.3672 40.5596 46.9168 40.1862L47.8693 40.8155C48.314 41.1092 48.9056 41.0253 49.2496 40.6183L50.3657 39.2967C50.7097 38.8897 50.6929 38.2897 50.3279 37.9037L49.5601 37.0898C49.8412 36.494 50.0469 35.8647 50.1643 35.2185L51.2132 35.0045C51.7334 34.8996 52.0943 34.4171 52.0523 33.8884L51.9055 32.164C51.8593 31.6354 51.4272 31.22 50.8943 31.2032L49.8412 31.1697C49.623 30.5571 49.3293 29.9781 48.9643 29.441L49.5391 28.5767C49.8412 28.1321 49.7573 27.5363 49.3503 27.1922ZM42.8512 37.1611C40.9884 37.3206 39.3436 35.9318 39.1884 34.0689C39.0289 32.2061 40.4178 30.5613 42.2806 30.4061C44.1434 30.2466 45.7882 31.6355 45.9434 33.4983C46.1029 35.3612 44.714 37.0059 42.8512 37.1611Z" fill="#1F8B4D"/>
<path d="M21.5456 41.8016C21.0169 41.8562 20.6099 42.3009 20.6057 42.8338L20.5931 43.8953C20.5848 44.4281 20.9792 44.8812 21.5078 44.9484L22.2882 45.0491C22.4183 45.5232 22.6029 45.9764 22.842 46.4043L22.3385 47.0253C22.0029 47.4406 22.0281 48.0364 22.4015 48.4182L23.1441 49.1777C23.5175 49.5595 24.1133 49.6014 24.5371 49.2742L25.1622 48.7916C25.6027 49.0518 26.0685 49.2574 26.5552 49.4L26.6391 50.2056C26.6936 50.7342 27.1384 51.1412 27.6712 51.1454L28.7327 51.158C29.2656 51.1664 29.7187 50.772 29.7859 50.2434L29.8824 49.4797C30.4111 49.3496 30.9145 49.1525 31.3928 48.8923L31.9802 49.3665C32.3956 49.7021 32.9914 49.6769 33.3732 49.3035L34.1326 48.5609C34.5144 48.1875 34.5564 47.5917 34.2292 47.1679L33.7801 46.5847C34.0571 46.1232 34.2711 45.6323 34.4179 45.1162L35.1144 45.0449C35.6431 44.9903 36.05 44.5456 36.0542 44.0127L36.0668 42.9512C36.0752 42.4184 35.6808 41.9652 35.1522 41.8981L34.4724 41.81C34.3424 41.2981 34.1494 40.803 33.8977 40.3415L34.3214 39.8212C34.6571 39.4059 34.6319 38.8101 34.2585 38.4283L33.5159 37.6688C33.1425 37.287 32.5466 37.245 32.1229 37.5723L31.6152 37.9625C31.1369 37.673 30.625 37.4507 30.088 37.2996L30.0208 36.6409C29.9663 36.1122 29.5216 35.7053 28.9887 35.7011L27.9272 35.6885C27.3943 35.6801 26.9412 36.0745 26.874 36.6031L26.7901 37.2577C26.2363 37.4003 25.7035 37.6185 25.2084 37.9038L24.6839 37.4758C24.2686 37.1402 23.6727 37.1654 23.2909 37.5388L22.5273 38.2856C22.1455 38.659 22.1035 39.2548 22.4308 39.6786L22.8797 40.2576C22.6196 40.7191 22.414 41.21 22.2798 41.7261L21.5456 41.8016ZM28.3971 40.6016C29.9201 40.6184 31.141 41.8729 31.1243 43.396C31.1075 44.919 29.8529 46.1399 28.3299 46.1232C26.8069 46.1064 25.586 44.8519 25.6027 43.3288C25.6196 41.8058 26.8741 40.5849 28.3971 40.6016Z" fill="#1F8B4D"/>
</svg>
