<svg width="65" height="64" viewBox="0 0 65 64" fill="none" xmlns="http://www.w3.org/2000/svg">
<path opacity="0.16" d="M2.27783 32.0001C2.27783 23.9846 5.46195 16.2975 11.1297 10.6297C16.7975 4.96195 24.4846 1.77783 32.5001 1.77783C40.5155 1.77783 48.2026 4.96195 53.8704 10.6297C59.5382 16.2975 62.7223 23.9846 62.7223 32.0001C62.7223 40.0155 59.5382 47.7026 53.8704 53.3704C48.2026 59.0382 40.5155 62.2223 32.5001 62.2223C24.4846 62.2223 16.7975 59.0382 11.1297 53.3704C5.46195 47.7026 2.27783 40.0155 2.27783 32.0001Z" fill="#1F8B4D"/>
<path d="M21.7444 31.5773C22.5148 29.6217 23.441 27.7403 24.5231 25.9328C25.6051 24.1254 26.8271 22.4217 28.1888 20.8217L25.8777 20.3328C25.2851 20.2143 24.7074 20.244 24.1444 20.4217C23.5814 20.5995 23.0925 20.8958 22.6777 21.3106L17.0777 26.9106C16.6333 27.3551 16.4626 27.8884 16.5657 28.5106C16.6688 29.1328 17.0173 29.5625 17.6111 29.7995L21.7444 31.5773ZM47.8777 14.244C44.737 14.0958 41.7521 14.7032 38.9231 16.0662C36.094 17.4291 33.5678 19.2217 31.3444 21.444C29.9222 22.8662 28.67 24.4069 27.5879 26.0662C26.5059 27.7254 25.566 29.4736 24.7684 31.3106C24.6202 31.6958 24.5462 32.0887 24.5462 32.4893C24.5462 32.8899 24.6943 33.2377 24.9906 33.5328L30.5462 39.0884C30.8425 39.3847 31.1909 39.5328 31.5915 39.5328C31.9921 39.5328 32.3844 39.4588 32.7684 39.3106C34.6054 38.5106 36.3536 37.5696 38.0128 36.4875C39.6721 35.4054 41.2128 34.1539 42.6351 32.7328C44.8573 30.5106 46.6499 27.985 48.0128 25.156C49.3758 22.3269 49.9826 19.3414 49.8333 16.1995C49.8333 15.9625 49.774 15.7254 49.6555 15.4884C49.537 15.2514 49.3888 15.044 49.2111 14.8662C49.0333 14.6884 48.8259 14.5403 48.5888 14.4217C48.3518 14.3032 48.1148 14.244 47.8777 14.244ZM36.5888 27.4884C35.9074 26.8069 35.5666 25.9702 35.5666 24.9782C35.5666 23.9862 35.9074 23.1488 36.5888 22.4662C37.2703 21.7835 38.1077 21.4428 39.1008 21.444C40.094 21.4451 40.9308 21.7859 41.6111 22.4662C42.2914 23.1465 42.6321 23.9838 42.6333 24.9782C42.6345 25.9725 42.2937 26.8093 41.6111 27.4884C40.9284 28.1675 40.0917 28.5083 39.1008 28.5106C38.11 28.513 37.2727 28.1723 36.5888 27.4884ZM32.4999 42.3328L34.2777 46.4662C34.5148 47.0588 34.9444 47.4143 35.5666 47.5328C36.1888 47.6514 36.7222 47.4884 37.1666 47.044L42.7666 41.444C43.1814 41.0291 43.4777 40.5331 43.6555 39.956C43.8333 39.3788 43.8629 38.7933 43.7444 38.1995L43.2999 35.8884C41.6703 37.2514 39.9595 38.4739 38.1675 39.556C36.3755 40.638 34.4863 41.5637 32.4999 42.3328ZM18.0555 38.5106C19.0925 37.4736 20.3518 36.9474 21.8333 36.932C23.3148 36.9165 24.574 37.428 25.6111 38.4662C26.6481 39.5044 27.1666 40.7637 27.1666 42.244C27.1666 43.7243 26.6481 44.9835 25.6111 46.0217C24.1888 47.444 22.5071 48.2884 20.5657 48.5551C18.6244 48.8217 16.6765 49.0884 14.7222 49.3551C14.9888 47.3995 15.2632 45.4517 15.5453 43.5115C15.8274 41.5714 16.6641 39.9044 18.0555 38.5106Z" fill="#1F8B4D"/>
</svg>
