<svg width="65" height="64" viewBox="0 0 65 64" fill="none" xmlns="http://www.w3.org/2000/svg">
  <path opacity="0.16" d="M2.27777 32.0001C2.27777 23.9846 5.46189 16.2975 11.1297 10.6297C16.7974 4.96195 24.4846 1.77783 32.5 1.77783C40.5154 1.77783 48.2026 4.96195 53.8703 10.6297C59.5381 16.2975 62.7222 23.9846 62.7222 32.0001C62.7222 40.0155 59.5381 47.7026 53.8703 53.3704C48.2026 59.0382 40.5154 62.2223 32.5 62.2223C24.4846 62.2223 16.7974 59.0382 11.1297 53.3704C5.46189 47.7026 2.27777 40.0155 2.27777 32.0001Z" fill="#1F8B4D"/>
  <path d="M18.2778 46.2223C17.3 46.2223 16.463 45.8741 15.7667 45.1778C15.0704 44.4815 14.7222 43.6445 14.7222 42.6667V37.3334H18.2778V42.6667H46.7222V21.3334H18.2778V26.6667H14.7222V21.3334C14.7222 20.3556 15.0704 19.5186 15.7667 18.8223C16.463 18.126 17.3 17.7778 18.2778 17.7778H46.7222C47.7 17.7778 48.537 18.126 49.2333 18.8223C49.9296 19.5186 50.2778 20.3556 50.2778 21.3334V42.6667C50.2778 43.6445 49.9296 44.4815 49.2333 45.1778C48.537 45.8741 47.7 46.2223 46.7222 46.2223H18.2778ZM31.6111 40.0001L29.1222 37.4223L32.8111 33.7778H14.7222V30.2223H32.8111L29.1222 26.5778L31.6111 24.0001L39.6111 32.0001L31.6111 40.0001Z" fill="#1F8B4D"/>
</svg>
