<svg width="61" height="62" viewBox="0 0 61 62" fill="none" xmlns="http://www.w3.org/2000/svg">
  <path opacity="0.16" d="M0.277771 31.0001C0.277771 22.9846 3.46189 15.2975 9.12965 9.62971C14.7974 3.96195 22.4846 0.777832 30.5 0.777832C38.5154 0.777832 46.2026 3.96195 51.8703 9.62971C57.5381 15.2975 60.7222 22.9846 60.7222 31.0001C60.7222 39.0155 57.5381 46.7026 51.8703 52.3704C46.2026 58.0382 38.5154 61.2223 30.5 61.2223C22.4846 61.2223 14.7974 58.0382 9.12965 52.3704C3.46189 46.7026 0.277771 39.0155 0.277771 31.0001Z" fill="#1F8B4D"/>
  <path d="M31.8513 35.0137H29.1351V37.7299H31.8513V35.0137Z" fill="#1F8B4D"/>
  <path d="M31.8513 24.1487H29.1351V32.2974H31.8513V24.1487Z" fill="#1F8B4D"/>
  <path d="M37.2838 16H23.7026C22.2087 16 21 17.2223 21 18.7162V43.1623C21 44.6562 22.2087 45.8785 23.7026 45.8785H37.2838C38.7777 45.8785 40 44.6562 40 43.1623V18.7162C40 17.2223 38.7777 16 37.2838 16ZM37.2838 39.0879H23.7026V22.7906H37.2838V39.0879Z" fill="#1F8B4D"/>
</svg>
