<svg width="61" height="62" viewBox="0 0 61 62" fill="none" xmlns="http://www.w3.org/2000/svg">
  <path opacity="0.16" d="M0.277771 31.0001C0.277771 22.9846 3.46189 15.2975 9.12965 9.62971C14.7974 3.96195 22.4846 0.777832 30.5 0.777832C38.5154 0.777832 46.2026 3.96195 51.8703 9.62971C57.5381 15.2975 60.7222 22.9846 60.7222 31.0001C60.7222 39.0155 57.5381 46.7026 51.8703 52.3704C46.2026 58.0382 38.5154 61.2223 30.5 61.2223C22.4846 61.2223 14.7974 58.0382 9.12965 52.3704C3.46189 46.7026 0.277771 39.0155 0.277771 31.0001Z" fill="#1F8B4D"/>
  <path d="M42 28V38H39.5V28H42ZM39.5 40.5V43H42V40.5H39.5ZM37 37.1125C35.1625 39.1875 32.4875 40.5 29.5 40.5C23.9875 40.5 19.5 36.0125 19.5 30.5C19.5 24.9875 23.9875 20.5 29.5 20.5V31.75L38.9375 22.3125C36.65 19.675 33.275 18 29.5 18C22.6 18 17 23.6 17 30.5C17 37.4 22.6 43 29.5 43C32.3125 43 34.9125 42.075 37 40.5V37.1125Z" fill="#1F8B4D"/>
</svg>
