<svg width="61" height="62" viewBox="0 0 61 62" fill="none" xmlns="http://www.w3.org/2000/svg">
  <path opacity="0.16" d="M0.277771 31.0001C0.277771 22.9846 3.46189 15.2975 9.12965 9.62971C14.7974 3.96195 22.4846 0.777832 30.5 0.777832C38.5154 0.777832 46.2026 3.96195 51.8703 9.62971C57.5381 15.2975 60.7222 22.9846 60.7222 31.0001C60.7222 39.0155 57.5381 46.7026 51.8703 52.3704C46.2026 58.0382 38.5154 61.2223 30.5 61.2223C22.4846 61.2223 14.7974 58.0382 9.12965 52.3704C3.46189 46.7026 0.277771 39.0155 0.277771 31.0001Z" fill="#1F8B4D"/>
  <path d="M40.925 18.175L38.75 16L36.575 18.175L34.4 16L32.225 18.175L30.05 16L27.875 18.175L25.7 16L23.525 18.175L21.35 16V36.3H17V40.65C17 43.057 18.943 45 21.35 45H38.75C41.157 45 43.1 43.057 43.1 40.65V16L40.925 18.175ZM40.2 40.65C40.2 41.4475 39.5475 42.1 38.75 42.1C37.9525 42.1 37.3 41.4475 37.3 40.65V36.3H24.25V20.35H40.2V40.65Z" fill="#1F8B4D"/>
  <path d="M34.4 23.25H25.7V26.15H34.4V23.25Z" fill="#1F8B4D"/>
  <path d="M38.75 23.25H35.85V26.15H38.75V23.25Z" fill="#1F8B4D"/>
  <path d="M34.4 27.6001H25.7V30.5001H34.4V27.6001Z" fill="#1F8B4D"/>
  <path d="M38.75 27.6001H35.85V30.5001H38.75V27.6001Z" fill="#1F8B4D"/>
</svg>
