<svg width="65" height="64" viewBox="0 0 65 64" fill="none" xmlns="http://www.w3.org/2000/svg">
<path opacity="0.16" d="M2.27783 32.0001C2.27783 23.9846 5.46195 16.2975 11.1297 10.6297C16.7975 4.96195 24.4846 1.77783 32.5001 1.77783C40.5155 1.77783 48.2026 4.96195 53.8704 10.6297C59.5382 16.2975 62.7223 23.9846 62.7223 32.0001C62.7223 40.0155 59.5382 47.7026 53.8704 53.3704C48.2026 59.0382 40.5155 62.2223 32.5001 62.2223C24.4846 62.2223 16.7975 59.0382 11.1297 53.3704C5.46195 47.7026 2.27783 40.0155 2.27783 32.0001Z" fill="#1F8B4D"/>
<path d="M45.5909 39.4667V22.4H19.4091V39.4667H45.5909ZM45.5909 19.5555C46.3624 19.5555 47.1024 19.8552 47.6479 20.3887C48.1935 20.9221 48.5 21.6456 48.5 22.4V39.4667C48.5 40.221 48.1935 40.9445 47.6479 41.478C47.1024 42.0114 46.3624 42.3111 45.5909 42.3111H35.4091V45.1555H38.3182V48H26.6818V45.1555H29.5909V42.3111H19.4091C18.6376 42.3111 17.8976 42.0114 17.3521 41.478C16.8065 40.9445 16.5 40.221 16.5 39.4667V22.4C16.5 20.8213 17.7945 19.5555 19.4091 19.5555H45.5909ZM22.3182 25.2444H35.4091V32.3555H22.3182V25.2444ZM36.8636 25.2444H42.6818V28.0889H36.8636V25.2444ZM42.6818 29.5111V36.6222H36.8636V29.5111H42.6818ZM22.3182 33.7778H28.1364V36.6222H22.3182V33.7778ZM29.5909 33.7778H35.4091V36.6222H29.5909V33.7778Z" fill="#1F8B4D"/>
</svg>
