<svg width="61" height="62" viewBox="0 0 61 62" fill="none" xmlns="http://www.w3.org/2000/svg">
  <path opacity="0.16" d="M0.277771 31.0001C0.277771 22.9846 3.46189 15.2975 9.12965 9.62971C14.7974 3.96195 22.4846 0.777832 30.5 0.777832C38.5154 0.777832 46.2026 3.96195 51.8703 9.62971C57.5381 15.2975 60.7222 22.9846 60.7222 31.0001C60.7222 39.0155 57.5381 46.7026 51.8703 52.3704C46.2026 58.0382 38.5154 61.2223 30.5 61.2223C22.4846 61.2223 14.7974 58.0382 9.12965 52.3704C3.46189 46.7026 0.277771 39.0155 0.277771 31.0001Z" fill="#1F8B4D"/>
  <path d="M16.3619 32.8996H16.2778V43.7783C16.2778 44.5634 16.9226 45.2083 17.7077 45.2083H28.9088C28.8107 38.4091 23.2312 32.8996 16.3619 32.8996ZM16.3619 23.9275H16.2778V28.5538C25.5163 28.5958 33.0304 36.0258 33.1285 45.2083H37.923C37.8389 33.4604 28.2079 23.9275 16.3619 23.9275ZM44.7222 43.7923V33.9651C41.4698 26.0023 34.923 19.7078 26.778 16.7778H17.7077C16.9226 16.7778 16.2778 17.4227 16.2778 18.2078V19.5956C30.493 19.6377 42.0586 31.0912 42.1427 45.2223H43.2923C44.0914 45.2083 44.7222 44.5774 44.7222 43.7923ZM40.9792 20.7452C42.2969 22.063 43.6427 23.7312 44.7222 25.2032V18.1938C44.7228 18.0077 44.6865 17.8233 44.6156 17.6512C44.5446 17.4792 44.4403 17.3229 44.3087 17.1913C44.1771 17.0597 44.0208 16.9554 43.8488 16.8845C43.6768 16.8135 43.4924 16.7773 43.3063 16.7778H36.0865C37.7688 17.9414 39.5072 19.2732 40.9792 20.7452Z" fill="#1F8B4D"/>
</svg>
