<svg width="61" height="62" viewBox="0 0 61 62" fill="none" xmlns="http://www.w3.org/2000/svg">
  <path opacity="0.16" d="M0.277649 31.0001C0.277649 22.9846 3.46177 15.2975 9.12953 9.62971C14.7973 3.96195 22.4844 0.777832 30.4999 0.777832C38.5153 0.777832 46.2024 3.96195 51.8702 9.62971C57.538 15.2975 60.7221 22.9846 60.7221 31.0001C60.7221 39.0155 57.538 46.7026 51.8702 52.3704C46.2024 58.0382 38.5153 61.2223 30.4999 61.2223C22.4844 61.2223 14.7973 58.0382 9.12953 52.3704C3.46177 46.7026 0.277649 39.0155 0.277649 31.0001Z" fill="#1F8B4D"/>
  <path d="M42.3517 40.5555C43.9814 40.5555 45.2999 39.2555 45.2999 37.6666L45.3147 23.2221C45.3147 21.6333 43.9814 20.3333 42.3517 20.3333H18.648C17.0184 20.3333 15.6851 21.6333 15.6851 23.2221V37.6666C15.6851 39.2555 17.0184 40.5555 18.648 40.5555H12.7221V43.4444H48.2777V40.5555H42.3517ZM18.648 23.2221H42.3517V37.6666H18.648V23.2221Z" fill="#1F8B4D"/>
</svg>
