<svg width="61" height="62" viewBox="0 0 61 62" fill="none" xmlns="http://www.w3.org/2000/svg">
  <path opacity="0.16" d="M0.277779 31.0001C0.277779 22.9846 3.4619 15.2975 9.12966 9.62971C14.7974 3.96195 22.4846 0.777832 30.5 0.777832C38.5154 0.777832 46.2026 3.96195 51.8703 9.62971C57.5381 15.2975 60.7222 22.9846 60.7222 31.0001C60.7222 39.0155 57.5381 46.7026 51.8703 52.3704C46.2026 58.0382 38.5154 61.2223 30.5 61.2223C22.4846 61.2223 14.7974 58.0382 9.12966 52.3704C3.4619 46.7026 0.277779 39.0155 0.277779 31.0001Z" fill="#1F8B4D"/>
  <path d="M45.0455 28.2042V21.788C45.0455 20.0102 43.5909 18.5557 41.8131 18.5557H15.9545C14.1768 18.5557 12.7384 20.0102 12.7384 21.788L12.7222 41.1819C12.7222 42.9597 14.1768 44.4143 15.9545 44.4143H35.3485V36.285C35.3485 31.8244 38.9687 28.2042 43.4293 28.2042H45.0455ZM41.8131 25.0203L28.8838 33.1011L15.9545 25.0203V21.788L28.8838 29.8688L41.8131 21.788V25.0203Z" fill="#1F8B4D"/>
  <path d="M46.6616 36.3333V34.7172C46.6616 32.9394 45.207 31.4849 43.4293 31.4849C41.6515 31.4849 40.1969 32.9394 40.1969 34.7172V36.3333C39.3081 36.3333 38.5808 37.0606 38.5808 37.9495V42.798C38.5808 43.6869 39.3081 44.4142 40.1969 44.4142H46.6616C47.5505 44.4142 48.2778 43.6869 48.2778 42.798V37.9495C48.2778 37.0606 47.5505 36.3333 46.6616 36.3333ZM45.0454 36.3333H41.8131V34.7172C41.8131 33.8283 42.5404 33.101 43.4293 33.101C44.3182 33.101 45.0454 33.8283 45.0454 34.7172V36.3333Z" fill="#1F8B4D"/>
</svg>
