<svg width="61" height="62" viewBox="0 0 61 62" fill="none" xmlns="http://www.w3.org/2000/svg">
  <path opacity="0.16" d="M0.277771 31.0001C0.277771 22.9846 3.46189 15.2975 9.12965 9.62971C14.7974 3.96195 22.4846 0.777832 30.5 0.777832C38.5154 0.777832 46.2026 3.96195 51.8703 9.62971C57.5381 15.2975 60.7222 22.9846 60.7222 31.0001C60.7222 39.0155 57.5381 46.7026 51.8703 52.3704C46.2026 58.0382 38.5154 61.2223 30.5 61.2223C22.4846 61.2223 14.7974 58.0382 9.12965 52.3704C3.46189 46.7026 0.277771 39.0155 0.277771 31.0001Z" fill="#1F8B4D"/>
  <path d="M20.5444 45.2223C19.7622 45.2223 19.0926 44.9438 18.5355 44.3867C17.9785 43.8297 17.7 43.1601 17.7 42.3778V26.3423C17.2733 26.0815 16.9296 25.7438 16.6689 25.3289C16.4081 24.9141 16.2778 24.4341 16.2778 23.8889V19.6223C16.2778 18.8401 16.5563 18.1704 17.1133 17.6134C17.6704 17.0564 18.34 16.7778 19.1222 16.7778H41.8778C42.66 16.7778 43.3296 17.0564 43.8867 17.6134C44.4437 18.1704 44.7222 18.8401 44.7222 19.6223V23.8889C44.7222 24.4341 44.5918 24.9141 44.3311 25.3289C44.0704 25.7438 43.7267 26.0815 43.3 26.3423V42.3778C43.3 43.1601 43.0215 43.8297 42.4644 44.3867C41.9074 44.9438 41.2378 45.2223 40.4555 45.2223H20.5444ZM19.1222 23.8889H41.8778V19.6223H19.1222V23.8889ZM26.2333 33.8445H34.7667V31.0001H26.2333V33.8445Z" fill="#1F8B4D"/>
</svg>
