<svg width="65" height="64" viewBox="0 0 65 64" fill="none" xmlns="http://www.w3.org/2000/svg">
<path opacity="0.16" d="M2.27783 32.0001C2.27783 23.9846 5.46195 16.2975 11.1297 10.6297C16.7975 4.96195 24.4846 1.77783 32.5001 1.77783C40.5155 1.77783 48.2026 4.96195 53.8704 10.6297C59.5382 16.2975 62.7223 23.9846 62.7223 32.0001C62.7223 40.0155 59.5382 47.7026 53.8704 53.3704C48.2026 59.0382 40.5155 62.2223 32.5001 62.2223C24.4846 62.2223 16.7975 59.0382 11.1297 53.3704C5.46195 47.7026 2.27783 40.0155 2.27783 32.0001Z" fill="#1F8B4D"/>
<path d="M32.5001 49.7777C28.3815 48.7407 24.9818 46.3774 22.3009 42.6879C19.6189 38.9996 18.2778 34.9037 18.2778 30.3999V19.5555L32.5001 14.2222L46.7223 19.5555V30.3999C46.7223 34.9037 45.3818 38.9996 42.7009 42.6879C40.0189 46.3774 36.6186 48.7407 32.5001 49.7777ZM32.5001 46.0444C35.3741 45.1555 37.7741 43.4002 39.7001 40.7786C41.626 38.1558 42.7519 35.2296 43.0778 31.9999H32.5001V17.9999L21.8334 21.9999V31.1999C21.8334 31.4074 21.863 31.674 21.9223 31.9999H32.5001V46.0444Z" fill="#1F8B4D"/>
</svg>
