<svg width="61" height="62" viewBox="0 0 61 62" fill="none" xmlns="http://www.w3.org/2000/svg">
  <path opacity="0.16" d="M0.277771 31.0001C0.277771 22.9846 3.46189 15.2975 9.12965 9.62971C14.7974 3.96195 22.4846 0.777832 30.5 0.777832C38.5154 0.777832 46.2026 3.96195 51.8703 9.62971C57.5381 15.2975 60.7222 22.9846 60.7222 31.0001C60.7222 39.0155 57.5381 46.7026 51.8703 52.3704C46.2026 58.0382 38.5154 61.2223 30.5 61.2223C22.4846 61.2223 14.7974 58.0382 9.12965 52.3704C3.46189 46.7026 0.277771 39.0155 0.277771 31.0001Z" fill="#1F8B4D"/>
  <path d="M46.5 31L40.8111 36.8182L38.8058 34.7673L41.0529 32.4545H33.6147C33.1311 36.9636 30.4004 40.7745 26.5889 42.7091C26.532 45.0945 24.6547 47 22.3222 47C19.9613 47 18.0555 45.0509 18.0555 42.6364C18.0555 40.2218 19.9613 38.2727 22.3222 38.2727C23.6733 38.2727 24.8538 38.9273 25.636 39.9309C28.3382 38.4327 30.2724 35.6982 30.7275 32.4545H26.3187C25.7355 34.1418 24.1711 35.3636 22.3222 35.3636C19.9613 35.3636 18.0555 33.4145 18.0555 31C18.0555 28.5855 19.9613 26.6364 22.3222 26.6364C24.1711 26.6364 25.7355 27.8582 26.3329 29.5455H30.7418C30.2867 26.3018 28.3382 23.5818 25.636 22.0691C24.8538 23.0727 23.6733 23.7273 22.3222 23.7273C19.9613 23.7273 18.0555 21.7782 18.0555 19.3636C18.0555 16.9491 19.9613 15 22.3222 15C24.6547 15 26.532 16.9055 26.5747 19.2909C30.3862 21.2255 33.1169 25.0364 33.6004 29.5455H41.0387L38.7915 27.2327L40.8111 25.1818L46.5 31Z" fill="#1F8B4D"/>
</svg>
