<svg width="61" height="62" viewBox="0 0 61 62" fill="none" xmlns="http://www.w3.org/2000/svg">
  <path opacity="0.16" d="M0.277771 31.0001C0.277771 22.9846 3.46189 15.2975 9.12965 9.62971C14.7974 3.96195 22.4846 0.777832 30.5 0.777832C38.5154 0.777832 46.2026 3.96195 51.8703 9.62971C57.5381 15.2975 60.7222 22.9846 60.7222 31.0001C60.7222 39.0155 57.5381 46.7026 51.8703 52.3704C46.2026 58.0382 38.5154 61.2223 30.5 61.2223C22.4846 61.2223 14.7974 58.0382 9.12965 52.3704C3.46189 46.7026 0.277771 39.0155 0.277771 31.0001Z" fill="#1F8B4D"/>
  <path d="M44.7222 20.3334H30.5L26.9445 16.7778H16.2778C14.3222 16.7778 12.74 18.3778 12.74 20.3334L12.7222 41.6667C12.7222 43.6223 14.3222 45.2223 16.2778 45.2223H44.7222C46.6778 45.2223 48.2778 43.6223 48.2778 41.6667V23.8889C48.2778 21.9334 46.6778 20.3334 44.7222 20.3334ZM34.0556 38.1112H19.8333V34.5556H34.0556V38.1112ZM41.1667 31.0001H19.8333V27.4445H41.1667V31.0001Z" fill="#1F8B4D"/>
</svg>
