<svg width="65" height="64" viewBox="0 0 65 64" fill="none" xmlns="http://www.w3.org/2000/svg">
<path opacity="0.16" d="M2.27783 32.0001C2.27783 23.9846 5.46195 16.2975 11.1297 10.6297C16.7975 4.96195 24.4846 1.77783 32.5001 1.77783C40.5155 1.77783 48.2026 4.96195 53.8704 10.6297C59.5382 16.2975 62.7223 23.9846 62.7223 32.0001C62.7223 40.0155 59.5382 47.7026 53.8704 53.3704C48.2026 59.0382 40.5155 62.2223 32.5001 62.2223C24.4846 62.2223 16.7975 59.0382 11.1297 53.3704C5.46195 47.7026 2.27783 40.0155 2.27783 32.0001Z" fill="#1F8B4D"/>
<path d="M24.5858 30.2244C25.5237 30.0984 26.4616 30.4204 27.1266 31.0853L28.8065 32.7652L30.3954 31.1833L28.0995 28.8945C27.7426 28.5375 27.7426 27.9565 28.0995 27.5995C28.4565 27.2426 29.0375 27.2426 29.3945 27.5995L31.6903 29.8954L33.2792 28.3135L31.5923 26.6266C30.9274 25.9616 30.6054 25.0167 30.7314 24.0858C31.0114 21.9579 30.3324 19.732 28.7015 18.0941C27.0356 16.4282 24.7537 15.7562 22.5909 16.0782C22.2479 16.1272 22.1079 16.5542 22.3529 16.7992L24.5158 18.9621C25.5447 19.991 25.5447 21.6569 24.5158 22.6788L23.1858 24.0088C22.1569 25.0377 20.491 25.0377 19.4691 24.0088L17.2992 21.8459C17.0542 21.6009 16.6342 21.7409 16.5782 22.0839C16.2562 24.2467 16.9282 26.5286 18.5941 28.1945C20.232 29.8254 22.4579 30.5044 24.5858 30.2244Z" fill="#1F8B4D"/>
<path d="M38.0389 33.0732L36.45 34.6551L45.8854 44.0906C46.2424 44.4476 46.2424 45.0285 45.8854 45.3855C45.5285 45.7425 44.9475 45.7425 44.5905 45.3855L35.1551 35.9501L33.5662 37.532L43.2886 47.2544C44.5205 48.4863 46.5154 48.4793 47.7473 47.2474C48.9793 46.0155 48.9793 44.0206 47.7543 42.7887L38.0389 33.0732Z" fill="#1F8B4D"/>
<path d="M41.6857 26.7736H45.8785L50.0712 18.3951L47.9784 16.3022L39.5928 20.488V24.6808L28.1975 36.0411L26.1466 33.9972L17.8871 42.2567C16.1652 43.9786 16.1652 46.7644 17.8871 48.4863C19.609 50.2082 22.3949 50.2082 24.1168 48.4863L32.3763 40.2268L30.2834 38.134L41.6857 26.7736Z" fill="#1F8B4D"/>
</svg>
