<svg width="61" height="62" viewBox="0 0 61 62" fill="none" xmlns="http://www.w3.org/2000/svg">
  <path opacity="0.16" d="M0.111145 31.0001C0.111145 22.9846 3.29526 15.2975 8.96303 9.62972C14.6308 3.96195 22.3179 0.777832 30.3334 0.777832C38.3488 0.777832 46.0359 3.96195 51.7037 9.62972C57.3715 15.2975 60.5556 22.9846 60.5556 31.0001C60.5556 39.0155 57.3715 46.7026 51.7037 52.3704C46.0359 58.0382 38.3488 61.2223 30.3334 61.2223C22.3179 61.2223 14.6308 58.0382 8.96303 52.3704C3.29526 46.7026 0.111145 39.0155 0.111145 31.0001Z" fill="#1F8B4D"/>
  <path d="M35.9867 29.1155C36.3423 28.3333 36.5556 27.4799 36.5556 26.5555C36.5556 23.1244 33.7645 20.3333 30.3334 20.3333C29.4089 20.3333 28.5556 20.5466 27.7734 20.9021L35.9867 29.1155Z" fill="#1F8B4D"/>
  <path d="M30.3334 13.2222C20.52 13.2222 12.5556 21.1866 12.5556 30.9999C12.5556 40.8133 20.52 48.7777 30.3334 48.7777C40.1467 48.7777 48.1112 40.8133 48.1112 30.9999C48.1112 21.1866 40.1467 13.2222 30.3334 13.2222ZM30.3334 36.3333C26.2089 36.3333 22.4223 37.7555 19.4178 40.1022C17.3556 37.6311 16.1112 34.4666 16.1112 30.9999C16.1112 27.7111 17.2312 24.6888 19.1156 22.2888L24.2 27.3733C24.5734 30.1466 26.7423 32.3333 29.5156 32.6888L33.4267 36.5999C32.4134 36.4222 31.3823 36.3333 30.3334 36.3333ZM41.5512 39.7111L21.6223 19.7822C24.0223 17.8977 27.0445 16.7777 30.3334 16.7777C38.1912 16.7777 44.5556 23.1422 44.5556 30.9999C44.5556 34.2888 43.4356 37.2933 41.5512 39.7111Z" fill="#1F8B4D"/>
</svg>
