<svg width="65" height="64" viewBox="0 0 65 64" fill="none" xmlns="http://www.w3.org/2000/svg">
<path opacity="0.16" d="M2.27783 32.0001C2.27783 23.9846 5.46195 16.2975 11.1297 10.6297C16.7975 4.96195 24.4846 1.77783 32.5001 1.77783C40.5155 1.77783 48.2026 4.96195 53.8704 10.6297C59.5382 16.2975 62.7223 23.9846 62.7223 32.0001C62.7223 40.0155 59.5382 47.7026 53.8704 53.3704C48.2026 59.0382 40.5155 62.2223 32.5001 62.2223C24.4846 62.2223 16.7975 59.0382 11.1297 53.3704C5.46195 47.7026 2.27783 40.0155 2.27783 32.0001Z" fill="#1F8B4D"/>
<path d="M32.4999 14.2222C22.6805 14.2222 14.7222 20.1874 14.7222 27.5555C14.7222 32.7638 18.7152 37.2638 24.5208 39.4583L20.6458 49.7777L31.7916 40.8611C32.0277 40.868 32.2569 40.8888 32.4999 40.8888C42.3194 40.8888 50.2777 34.9236 50.2777 27.5555C50.2777 20.1874 42.3194 14.2222 32.4999 14.2222Z" fill="#1F8B4D"/>
</svg>
